<?xml version="1.0" encoding="iso-8859-1"?>
<!-- Generator: Adobe Illustrator 19.0.0, SVG Export Plug-In . SVG Version: 6.00 Build 0)  -->
<svg version="1.1" id="Layer_1" xmlns="http://www.w3.org/2000/svg" xmlns:xlink="http://www.w3.org/1999/xlink" x="0px" y="0px"
	 viewBox="0 0 512 512" style="enable-background:new 0 0 512 512;" xml:space="preserve">
<path style="fill:#00D7DF;" d="M511.976,28.506l-23.229,5.743c-0.483,0.12-49.237,11.935-132.847,11.935
	S223.538,34.369,223.078,34.255l-23.273-5.819v173.845c0,52.946,26.931,96.848,77.885,126.956
	c36.802,21.746,73.325,28.56,74.861,28.839l3.352,0.609l3.352-0.609c1.536-0.28,38.06-7.093,74.861-28.839
	C485.069,299.128,512,255.227,512,202.28V52.426L511.976,28.506z"/>
<g>
	<circle style="fill:#003638;" cx="287.22" cy="158.57" r="18.732"/>
	<circle style="fill:#003638;" cx="424.585" cy="158.57" r="18.732"/>
	<path style="fill:#003638;" d="M355.902,202.28c-30.986,0-56.195,25.209-56.195,56.195h112.39
		C412.098,227.489,386.888,202.28,355.902,202.28z"/>
</g>
<path style="fill:#FFDA44;" d="M312.171,153.384l-23.229,5.743c-0.483,0.12-49.237,11.935-132.847,11.935
	S23.733,159.247,23.274,159.133L0,153.314v173.845c0,52.946,26.931,96.848,77.885,126.956c36.802,21.746,73.325,28.56,74.861,28.839
	l3.352,0.609l3.352-0.609c1.536-0.28,38.06-7.093,74.861-28.839c50.954-30.109,77.885-74.01,77.885-126.957V177.304L312.171,153.384
	z"/>
<g>
	<circle style="fill:#003638;" cx="87.415" cy="283.448" r="18.732"/>
	<circle style="fill:#003638;" cx="224.78" cy="283.448" r="18.732"/>
	<path style="fill:#003638;" d="M156.098,402.085c30.986,0,56.195-25.209,56.195-56.195H99.902
		C99.902,376.877,125.112,402.085,156.098,402.085z"/>
</g>
<g>
</g>
<g>
</g>
<g>
</g>
<g>
</g>
<g>
</g>
<g>
</g>
<g>
</g>
<g>
</g>
<g>
</g>
<g>
</g>
<g>
</g>
<g>
</g>
<g>
</g>
<g>
</g>
<g>
</g>
</svg>
