<?xml version="1.0" encoding="UTF-8" standalone="no" ?>
<!DOCTYPE svg PUBLIC "-//W3C//DTD SVG 1.1//EN" "http://www.w3.org/Graphics/SVG/1.1/DTD/svg11.dtd">
<svg xmlns="http://www.w3.org/2000/svg" xmlns:xlink="http://www.w3.org/1999/xlink" version="1.1" width="500" height="500" viewBox="0 0 500 500" xml:space="preserve">
<desc>Created with Fabric.js 3.6.3</desc>
<defs>
</defs>
<g transform="matrix(1,0,0,1,249.99999996870523,302.19573770226793)" style=""  ><path fill="#ff5757" opacity="1" d="M-106.01-7.46C-106.16-7.46-106.26-7.56-106.41-7.56C-106.81-7.81-106.96-8.06-107.16-8.31C-106.86-8.31-106.31-8.46-105.86-8.56L-105.71-8.76C-106.21-8.71-106.61-8.76-107.06-8.76L-107.56-8.76C-109.12-8.76-112.47-8.81-114.03-8.86C-115.98-8.86-117.84-8.86-117.89-8.91C-119.74-9.11-127.05-9.06-128.71-9.11C-128.46-8.61-128.16-8.91-128.16-8.56C-128.16-8.36-128.21-8.21-128.26-8.11C-128.41-7.56-128.66-7.01-128.66-6.96C-128.71-6.86-128.71-6.71-128.71-6.46C-128.71-6.26-128.71-6.11-128.66-6.06C-128.61-5.80-128.16-5.60-128.16-5.35L-128.16-5.10L-128.06-3.60L-128.06-3.35C-128.11 0.31-128.16 3.96-128.11 5.92C-128.06 9.33-128.06 12.63-127.91 15.99C-127.75 15.94-127.65 15.89-127.60 15.89L-127.15 15.94C-127.05 15.94-127.00 15.94-126.95 15.89C-126.55 15.54-126.05 15.14-125.65 15.14C-125.25 15.29-125.10 15.69-124.85 15.84C-124.70 15.89-124.60 15.94-124.50 15.94C-124.30 15.94-124.15 15.89-123.95 15.84C-123.80 15.79-123.00 15.29-122.39 15.29C-122.04 15.29-122.09 15.84-121.79 15.89L-122.04 10.68C-122.09 9.43-122.09 8.17-122.09 6.92L-122.04-3.25C-120.44-3.20-118.69-3.15-117.03-3.05C-115.43-2.95-114.03-2.90-112.83-2.85L-113.18 5.72C-113.43 9.18-113.58 12.63-113.58 16.19C-113.53 16.14-113.38 16.09-113.23 16.09L-112.78 16.14C-112.72 16.14-112.67 16.14-112.62 16.09C-112.17 15.74-111.77 15.29-111.32 15.29L-111.17 15.34C-110.92 15.49-110.82 15.89-110.47 16.09C-110.32 16.14-110.22 16.19-110.17 16.19C-110.07 16.19-109.87 16.14-109.62 16.09C-109.47 16.09-109.02 15.74-108.47 15.54C-108.32 15.54-108.27 15.49-108.12 15.49C-107.66 15.49-107.77 16.04-107.46 16.24L-107.46 10.88C-107.46 8.27-106.96 0.26-106.76-2.50L-106.76-2.80C-106.66-2.95-106.56-3.05-106.56-3.10L-106.56-4.20C-106.61-4.75-106.66-5.15-106.61-5.70L-106.61-6.46C-106.56-6.61-106.51-6.76-106.36-6.91C-106.16-7.01-105.81-7.06-105.81-7.21C-105.81-7.26-105.86-7.36-106.01-7.46Z"/><path fill="#ff5757" opacity="1" d="M-76.65 4.87C-76.60 4.17-76.40 2.76-76.40 1.61C-76.40 1.16-76.45 0.81-76.50 0.51C-76.65-0.34-77.05-1.35-77.35-2.25C-77.76-3.35-78.36-4.40-78.96-5.30C-79.36-5.80-79.71-6.11-80.21-6.56L-80.86-7.26L-81.61-7.76C-82.11-8.16-82.72-8.61-83.42-8.81C-83.97-9.01-84.57-9.21-85.22-9.26L-87.32-9.46L-89.03-9.21C-89.98-9.06-90.73-9.01-91.38-8.91C-91.28-8.86-91.23-8.76-91.23-8.71L-91.23-8.21C-91.28-8.01-91.23-7.91-91.13-7.81L-90.13-7.21C-89.88-7.06-89.68-6.91-89.68-6.76L-89.73-6.41C-89.73-6.26-90.03-6.16-90.28-6.06C-90.68-5.80-90.88-5.75-91.08-5.60C-91.13-5.55-91.18-5.40-91.18-5.25L-91.23-5.05C-91.08-4.90-91.08-4.80-91.03-4.65C-91.03-4.55-90.88-4.35-90.48-4.20C-90.18-3.90-89.98-3.80-89.83-3.45C-89.78-3.35-89.68-3.25-89.68-3.10C-89.68-2.90-89.68-2.80-89.73-2.75C-89.78-2.60-90.33-2.40-89.48-2.40L-88.28-2.65C-87.78-2.70-87.42-2.70-87.12-2.70C-86.77-2.70-86.62-2.75-86.42-2.75L-85.92-2.65L-85.32-2.30L-85.07-2.00C-84.92-1.95-84.82-1.85-84.72-1.65L-84.12-0.94C-83.67-0.14-83.22 0.61-82.97 1.61C-82.87 2.16-83.07 3.81-83.07 4.02C-83.47 7.07-85.37 9.08-88.18 9.28C-88.48 9.33-89.23 9.28-89.58 9.28C-89.93 9.23-90.63 9.18-90.93 9.13C-94.19 8.62-94.84 5.27-94.59 3.26C-94.39 1.31-93.44 0.16-93.09-0.34C-92.13-1.40-91.18-2.30-90.08-2.70C-90.63-2.90-91.63-2.10-92.58-1.30C-92.89-0.94-93.24-0.59-93.64-0.24C-94.04 0.21-94.44 0.66-94.74 1.16C-94.79 0.91-94.79 0.66-94.79 0.46L-94.74 0.26C-94.69-0.09-94.59-0.34-94.39-0.64C-94.04-1.25-93.54-1.80-92.84-2.30C-92.43-2.50-92.18-2.80-91.88-3.00C-91.48-3.15-91.28-3.35-91.08-3.60C-90.73-3.80-90.68-3.85-90.63-4.00C-90.63-4.05-90.68-4.05-90.78-4.05C-91.13-4.10-91.88-3.75-92.03-3.70C-92.18-3.75-92.28-3.70-92.43-3.70C-92.58-3.70-92.74-3.80-92.89-3.95L-93.04-4.55C-93.24-4.80-93.29-5.10-93.29-5.30L-93.44-6.16L-93.44-6.56C-93.49-6.76-93.54-6.96-93.64-7.01C-93.79-7.26-93.99-7.36-94.39-7.41L-94.69-7.31C-95.99-6.46-97.19-5.30-98.15-4.20C-99.15-2.95-100.75-0.54-101.15 2.71L-101.15 2.76C-101.15 3.11-101.20 3.46-101.20 3.76C-101.20 5.62-100.90 7.22-100.75 7.87C-100.60 8.62-100.35 9.38-99.90 10.18C-99.55 10.93-99.05 11.68-98.55 12.38C-97.90 13.08-97.24 13.73-96.49 14.19C-95.74 14.84-94.74 15.24-93.79 15.59C-92.79 15.89-91.88 16.04-90.88 16.09L-90.38 16.14L-89.88 16.19C-88.93 16.29-88.03 16.29-86.92 16.19C-85.97 16.04-84.87 15.79-83.97 15.29C-82.36 14.69-80.61 13.33-79.66 11.93C-79.06 11.23-78.61 10.58-78.26 9.83C-77.91 9.13-77.00 7.12-76.65 4.87Z"/><path fill="#ff5757" opacity="1" d="M-66.03 15.54L-65.78-2.75C-65.33-2.75-64.88-2.70-64.43-2.65C-62.57-2.65-61.52-2.45-59.97-2.30C-58.82-2.25-57.21-2.30-56.06-2.15L-54.01-2.05C-54.11-2.50-54.91-2.40-55.51-2.55C-55.36-2.80-55.36-3.15-55.01-3.20L-54.26-3.15C-54.11-3.15-54.01-3.15-53.96-3.20C-53.86-3.25-53.81-3.30-53.81-3.35C-53.81-3.50-54.01-3.60-54.06-3.75C-54.11-3.85-54.11-4.00-54.11-4.15C-54.11-4.40-54.06-4.65-54.01-5.00C-53.86-5.45-53.81-5.90-53.66-6.46C-53.56-6.86-53.51-7.26-53.51-7.66L-53.51-7.91C-54.66-8.16-55.71-8.31-56.86-8.51C-57.92-8.66-59.67-8.71-60.72-8.76C-62.07-8.81-62.88-8.86-64.23-8.86L-67.08-8.86C-67.08-9.31-67.08-9.81-67.23-10.16C-67.28-10.36-67.38-10.46-67.43-10.46C-67.58-10.46-67.58-9.96-67.79-9.71C-67.94-9.51-68.09-9.41-68.29-9.41L-68.84-9.46L-69.04-9.46C-69.44-9.46-69.79-9.56-70.24-9.61L-70.69-9.66C-71.04-9.66-71.34-9.61-71.59-9.46C-71.54-8.11-71.49-6.91-71.49-5.55L-71.49-2.80C-71.49-0.64-71.59 1.56-71.69 3.76L-71.79 6.57C-71.84 8.02-71.89 9.43-71.89 10.98C-71.89 12.78-71.84 14.59-71.79 16.39C-71.74 16.34-71.64 16.34-71.54 16.34L-71.14 16.39C-71.09 16.39-70.99 16.34-70.84 16.29C-70.44 15.94-70.14 15.54-69.69 15.54L-68.84 16.24C-68.69 16.29-68.59 16.34-68.54 16.34C-68.39 16.34-68.19 16.24-68.04 16.19C-67.89 16.19-67.48 15.89-66.93 15.74L-66.53 15.64Z"/><path fill="#ff5757" opacity="1" d="M-31.56 5.07C-29.21 3.41-28.41 0.46-28.41-2.15C-28.41-4.20-29.26-6.81-31.11-8.21C-31.66-8.66-32.21-9.01-32.87-9.36C-33.42-9.71-34.02-10.01-34.67-10.16C-35.82-10.71-37.02-10.81-38.18-10.96C-39.93-11.22-41.88-11.12-43.24-10.71C-44.44-10.56-46.14-10.16-46.99-9.91C-46.04-9.51-45.14-9.96-44.19-10.11C-43.34-10.31-42.28-10.61-41.03-10.66C-41.58-10.41-41.58-10.11-42.53-9.76C-43.09-9.61-43.84-9.51-44.44-9.36C-45.19-9.21-45.94-9.16-46.34-9.01C-46.59-8.86-46.74-8.81-46.74-8.76C-46.74-8.61-46.04-8.66-45.49-8.61C-45.44-8.56-45.34-8.46-45.19-8.41C-45.79-7.56-46.99-8.06-47.80-8.16L-48.30-8.21C-48.55-8.21-48.90-8.11-49.25-7.91L-49.25-4.55C-49.20-3.80-49.15-3.25-49.15-2.80L-49.35-0.24L-49.35 10.08C-49.50 10.63-49.50 13.03-49.50 13.58C-49.50 14.99-49.45 16.39-49.40 17.79L-48.40 17.59C-47.95 17.19-47.59 16.84-47.19 16.84C-46.84 16.89-46.59 17.34-46.34 17.49C-46.19 17.54-46.14 17.59-46.09 17.59L-45.49 17.49C-45.44 17.34-44.94 17.04-44.39 16.89C-44.34 16.84-44.19 16.84-44.04 16.84C-43.69 16.84-43.74 17.44-43.44 17.49C-43.64 15.74-43.74 9.28-43.64 8.27C-43.19 8.27-40.38 7.87-37.68 7.27C-36.52 7.02-32.56 5.77-31.56 5.07ZM-34.62-3.80C-34.17-3.20-34.02-2.60-34.02-2.00C-34.07-0.84-34.77 0.16-35.62 0.61C-36.97 1.31-39.73 1.91-43.29 2.36L-43.29 0.26C-43.24-0.54-43.24-1.05-43.29-3.10C-43.29-3.55-43.29-3.85-43.34-4.00C-42.23-4.20-41.18-4.55-40.23-4.70C-39.38-4.80-38.63-4.85-37.93-4.70C-37.27-4.65-36.62-4.60-35.97-4.45C-35.72-4.35-34.87-3.95-34.62-3.80Z"/><path fill="#ff5757" opacity="1" d="M-3.91-6.81C-4.16-6.31-4.51-5.70-4.86-5.00C-4.96-5.25-5.11-5.40-5.16-5.75C-5.16-5.85-5.11-6.00-5.06-6.21C-5.06-6.56-4.81-6.96-4.61-7.36C-4.31-7.81-4.21-8.11-4.06-8.46C-4.01-8.51-4.01-8.61-4.06-8.71C-4.06-8.81-4.11-8.86-4.16-8.86C-4.31-8.86-4.56-8.56-4.81-8.41C-4.86-8.36-4.96-8.36-5.11-8.31C-5.46-8.31-5.66-8.56-6.01-8.71L-7.21-9.66C-7.57-10.01-8.07-10.21-8.57-10.26C-9.77-7.91-10.07-6.96-11.02-4.65C-11.42-3.60-12.52-1.05-13.08 0.16L-14.18 2.66C-15.78-0.39-17.89-4.50-18.44-5.40C-18.79-6.36-19.19-7.11-19.59-7.86C-19.99-8.66-20.39-9.51-20.74-10.36C-20.74-9.61-20.34-9.06-20.19-8.46L-19.44-6.41C-19.79-6.56-20.14-6.51-20.49-7.16C-20.74-7.41-20.89-7.86-21.14-8.41C-21.29-8.86-21.49-9.36-21.69-9.61L-21.94-9.91C-21.99-9.91-22.04-9.81-22.04-9.61L-22.04-9.01C-22.19-8.41-22.70-8.46-23.05-8.31C-23.50-8.11-24.05-8.11-24.60-8.06C-25.15-8.01-25.55-7.81-25.90-7.36L-17.18 8.22C-18.59 9.73-20.49 10.38-22.09 10.38L-24.30 10.38C-24.15 10.48-24.10 10.58-24.10 10.68L-24.15 10.83C-24.15 10.88-24.15 11.18-24.00 11.33C-23.80 11.53-23.40 11.68-23.05 11.88C-22.80 12.03-22.54 12.23-22.54 12.38L-22.80 12.58C-23.00 12.73-23.15 12.78-23.20 12.78L-23.90 13.08C-24.00 13.18-24.05 13.28-24.05 13.43C-24.05 13.53-24.00 13.68-23.85 13.88C-23.85 13.98-23.70 14.09-23.40 14.24C-23.25 14.44-22.80 14.74-22.75 14.89C-22.60 15.34-23.75 15.04-23.75 15.74L-21.24 15.74C-18.74 15.74-15.83 15.44-12.32 11.18C-11.42 10.08-9.92 7.52-9.27 6.12C-8.67 4.77-7.87 3.36-7.21 1.91C-6.36 0.01-5.16-3.00-4.91-3.75C-4.21-5.30-3.51-6.91-2.96-8.21C-3.26-8.01-3.66-7.51-3.91-6.81Z"/><path fill="#ff5757" opacity="1" d="M24.35 4.12L23.35 2.81L23.20 2.31C23.75 1.61 24.30 0.91 24.95 0.26C26.65-1.60 30.26-4.30 30.26-4.70C29.96-4.65 29.61-4.35 29.41-4.35C29.21-4.35 29.11-4.50 29.11-4.75C29.11-5.15 30.46-6.16 30.46-6.46C30.46-6.51 30.41-6.56 30.26-6.56L29.71-6.56C29.11-6.61 28.91-7.11 28.56-7.36L27.40-8.56C27.05-8.96 26.15-9.01 25.60-9.26C24.30-8.06 19.94-2.25 18.19 0.26L18.14-5.95L18.14-4.95C17.94-6.56 17.84-8.01 17.69-9.61C17.23-8.96 17.43-7.51 17.43-6.06C17.03-6.41 16.63-6.41 16.43-6.96C16.38-7.21 16.33-7.46 16.33-7.66L16.38-8.81C16.38-9.06 16.38-9.21 16.33-9.31C16.23-9.51 16.13-9.61 16.08-9.61C15.93-9.61 15.78-9.16 15.58-8.91C15.38-8.76 15.13-8.66 14.83-8.66L14.28-8.71C13.48-8.71 13.58-9.01 12.73-9.01C12.32-9.01 11.97-8.96 11.67-8.81L11.72-2.10L11.72 0.01C9.97-2.70 5.91-8.11 4.66-9.26C4.11-9.01 3.21-8.96 2.86-8.56L1.70-7.36C1.35-7.11 1.15-6.61 0.55-6.56L0.00-6.56C-0.15-6.56-0.20-6.51-0.20-6.46C-0.20-6.16 1.15-5.15 1.15-4.75C1.15-4.50 1.05-4.35 0.85-4.35C0.65-4.35 0.30-4.65 0.00-4.70C0.00-4.30 3.36-1.35 5.06 0.51C5.71 1.16 6.26 1.86 6.81 2.56L6.66 3.06L4.41 6.22C3.36 7.47 2.76 8.17 1.60 10.13C1.00 11.13 0.35 12.08-0.45 13.68C-0.05 13.88 0.25 13.43 0.80 13.68C1.40 14.04 1.90 14.39 2.05 14.44C2.30 14.59 2.66 14.79 3.11 14.84C3.26 14.84 3.61 14.74 4.06 14.74C4.66 14.89 5.06 15.29 5.46 15.64C5.81 15.84 6.21 15.84 6.56 16.09C6.91 14.84 7.57 13.33 8.02 12.43C10.42 7.82 11.22 6.22 11.97 4.97L11.97 15.64C12.17 15.59 12.32 15.54 12.47 15.54L12.98 15.54C13.53 15.29 13.38 14.84 13.98 14.84L14.18 14.84C14.53 14.99 14.43 15.34 14.78 15.54C14.88 15.59 15.03 15.59 15.23 15.59C15.43 15.59 15.68 15.59 15.88 15.54C16.03 15.49 17.03 14.99 17.79 14.99C18.24 14.99 18.24 15.44 18.54 15.59C18.54 13.83 18.49 12.23 18.34 10.58C18.29 9.53 18.29 8.97 18.29 7.52L18.24 5.07C18.89 6.27 19.54 7.47 20.69 9.48L22.44 13.13C23.00 13.93 23.25 15.34 23.70 16.09C24.05 15.84 24.45 15.84 24.80 15.64C25.20 15.29 25.60 14.89 26.20 14.74C26.65 14.74 27.00 14.84 27.15 14.84C27.61 14.79 27.96 14.59 28.21 14.44C28.36 14.39 28.86 14.04 29.46 13.68C30.01 13.43 30.31 13.88 30.71 13.68C28.96 10.33 25.10 5.02 24.35 4.12ZM22.14 3.41C22.34 3.11 22.60 2.81 22.85 2.56C22.85 2.91 22.80 3.16 22.95 3.56C22.70 3.51 22.39 3.56 22.14 3.41Z"/><path fill="#ff5757" opacity="1" d="M49.80 10.28C46.59 9.83 43.04 9.43 41.88 9.43L41.93 7.82L41.98 6.92C42.84 6.87 43.74 6.82 44.54 6.67L49.95 6.22L49.90 5.22C49.75 4.82 49.55 4.42 49.55 3.96C49.55 3.51 49.75 3.41 49.80 3.06L49.80 2.81C49.80 2.61 49.80 2.36 49.75 2.16C49.75 2.01 49.45 1.01 49.45 0.41C49.45 0.16 49.50 0.01 49.60 0.01C49.00 0.06 48.35 0.11 47.60 0.26L43.09 0.46L42.38 0.51L42.59-2.50C43.04-2.50 43.49-2.45 43.94-2.40C45.89-2.40 48.55-2.05 49.80-1.90L51.85-1.80C51.75-2.25 50.95-2.15 50.35-2.30C50.50-2.55 50.50-2.90 50.85-2.95L51.60-2.90C51.75-2.90 51.85-2.90 51.90-2.95C52.00-3.00 52.05-3.05 52.05-3.10C52.05-3.25 51.85-3.35 51.80-3.50C51.75-3.60 51.75-3.75 51.75-3.90C51.75-4.15 51.80-4.40 51.85-4.75C52.00-5.20 52.05-5.65 52.20-6.21C52.30-6.61 52.35-7.01 52.35-7.41L52.35-7.66C51.20-7.91 50.15-8.06 49.00-8.26C47.60-8.46 45.79-8.61 44.14-8.61L41.28-8.61C41.28-9.06 41.28-9.56 41.13-9.91C41.08-10.11 40.98-10.21 40.93-10.21C40.78-10.21 40.78-9.71 40.58-9.46C40.43-9.26 40.28-9.16 40.08-9.16L39.53-9.21L39.33-9.21C38.93-9.21 38.58-9.31 38.13-9.36L37.68-9.41C37.32-9.41 37.02-9.36 36.77-9.21C36.82-7.86 36.87-6.66 36.87-5.30L36.87-2.55C36.87-0.39 36.77-1.50 36.67 0.71L36.22 10.98C36.22 12.78 36.27 14.59 36.32 16.39C36.37 16.34 36.47 16.34 36.57 16.34L36.97 16.39C37.02 16.39 37.12 16.34 37.27 16.29C37.68 15.94 37.98 15.54 38.43 15.54L39.28 16.24C39.43 16.29 39.53 16.34 39.58 16.34C39.73 16.34 39.93 16.24 40.08 16.19C40.23 16.19 40.63 15.89 41.18 15.74L41.58 15.64L42.08 15.54L42.53 15.54C43.29 15.54 46.19 15.99 50.15 16.69C51.00 16.94 51.75 16.94 52.55 17.14C52.61 16.69 51.55 16.59 50.80 16.34C51.05 16.14 51.15 15.89 51.50 15.74C51.85 15.74 52.15 15.99 52.50 15.99C52.61 15.99 52.66 15.99 52.71 15.94C52.86 15.89 52.91 15.84 52.91 15.79C52.91 15.64 52.76 15.54 52.61 15.34L52.55 15.09C52.55 14.74 52.71 14.44 52.76 14.19C52.91 13.63 53.11 13.23 53.31 12.68C53.46 12.28 53.51 11.88 53.51 11.43L53.51 11.23C52.25 10.88 51.05 10.63 49.80 10.28ZM49.60 0.01C49.65 0.01 49.65 0.01 49.65 0.01Z"/><path fill="#ff5757" opacity="1" d="M77.96-4.70C77.76-5.05 77.45-5.05 77.30-5.65L77.30-8.26C77.20-8.51 77.15-8.61 77.10-8.61C76.95-8.61 76.85-8.11 76.65-7.86C76.50-7.66 76.35-7.56 76.15-7.56L75.50-7.66C74.85-7.66 74.05-8.01 73.30-8.01C73.05-8.01 72.80-7.96 72.54-7.86C72.39-3.60 72.04-3.25 71.64 0.96L66.43 0.91L64.08 0.86L64.08-0.99C64.08-2.00 64.08-3.20 64.13-4.45C64.18-4.90 64.18-5.30 64.18-5.75L64.18-9.31C63.68-8.66 63.83-7.11 63.68-5.65C63.48-5.90 63.13-6.00 62.98-6.66L62.98-8.46L63.03-8.81L62.98-9.06C62.93-9.31 62.88-9.41 62.83-9.41C62.68-9.41 62.57-8.91 62.42-8.66C62.27-8.51 62.12-8.41 61.92-8.41L59.07-8.86C58.82-8.86 58.57-8.81 58.32-8.71C58.17-5.30 58.07 4.17 58.07 10.48C58.07 12.98 58.07 14.99 58.12 15.94C58.27 15.89 58.37 15.84 58.42 15.84L58.87 15.89C58.97 15.89 59.02 15.89 59.07 15.84C59.47 15.49 59.97 15.09 60.37 15.09C60.77 15.24 60.92 15.64 61.17 15.79C61.32 15.84 61.42 15.89 61.52 15.89C61.72 15.89 61.87 15.84 62.07 15.79C62.22 15.74 63.03 15.24 63.63 15.24C63.98 15.24 63.93 15.79 64.23 15.84L63.93 6.07L71.04 6.07L70.84 9.63C70.64 13.08 70.44 14.19 70.44 17.74C70.49 17.69 70.64 17.64 70.79 17.64L71.24 17.69C71.29 17.69 71.34 17.69 71.39 17.64C71.84 17.29 72.24 16.84 72.70 16.84L72.85 16.89C73.10 17.04 73.20 17.44 73.55 17.64C73.70 17.69 73.80 17.74 73.85 17.74C73.95 17.74 74.15 17.69 74.40 17.64C74.55 17.64 75.00 17.29 75.55 17.09C75.70 17.09 75.75 17.04 75.90 17.04C76.35 17.04 76.25 17.59 76.55 17.79L76.55 15.29C76.55 12.68 78.21-0.69 78.41-3.45C78.41-3.60 78.46-4.10 78.46-4.65C78.46-5.70 78.41-6.26 78.26-6.26C78.11-6.26 78.01-5.75 77.96-4.70Z"/><path fill="#ff5757" opacity="1" d="M106.66-6.26C106.51-6.26 106.41-5.75 106.36-4.70C106.16-5.05 105.86-5.05 105.71-5.65L105.71-8.26C105.61-8.51 105.56-8.61 105.51-8.61C105.36-8.61 105.26-8.11 105.06-7.86C104.91-7.66 104.76-7.56 104.56-7.56L103.91-7.66C103.26-7.66 102.45-8.01 101.70-8.01C101.45-8.01 101.20-7.96 100.95-7.86L100.75-6.06C98.65-3.85 94.04 0.86 90.53 4.42L90.48-0.99C90.48-2.00 90.48-3.20 90.53-4.45C90.58-4.90 90.58-5.30 90.58-5.75L90.58-9.31C90.08-8.66 90.23-7.11 90.08-5.65C89.88-5.90 89.53-6.00 89.38-6.66L89.38-8.46L89.43-8.81L89.38-9.06C89.33-9.31 89.28-9.41 89.23-9.41C89.08-9.41 88.98-8.91 88.83-8.66C88.68-8.51 88.53-8.41 88.33-8.41L85.47-8.86C85.22-8.86 84.97-8.81 84.72-8.71C84.57-5.30 84.47 4.17 84.47 10.48C84.47 12.98 84.47 14.99 84.52 15.94C84.67 15.89 84.77 15.84 84.82 15.84L85.27 15.89C85.37 15.89 85.42 15.89 85.47 15.84C85.87 15.49 86.37 15.09 86.77 15.09C87.17 15.24 87.32 15.64 87.57 15.79C87.73 15.84 87.83 15.89 87.93 15.89C88.13 15.89 88.28 15.84 88.48 15.79C88.63 15.74 89.43 15.24 90.03 15.24C90.38 15.24 90.33 15.79 90.63 15.84L90.58 12.88L99.85 3.51L99.25 9.63C99.05 13.08 98.85 14.19 98.85 17.74C98.90 17.69 99.05 17.64 99.20 17.64L99.65 17.69C99.70 17.69 99.75 17.69 99.80 17.64C100.25 17.29 100.65 16.84 101.10 16.84L101.25 16.89C101.50 17.04 101.60 17.44 101.95 17.64C102.10 17.69 102.20 17.74 102.25 17.74C102.35 17.74 102.55 17.69 102.81 17.64C102.96 17.64 103.41 17.29 103.96 17.09C104.11 17.09 104.16 17.04 104.31 17.04C104.76 17.04 104.66 17.59 104.96 17.79L104.96 15.29C104.96 12.68 106.61-0.69 106.81-3.45C106.81-3.60 106.86-4.10 106.86-4.65C106.86-5.70 106.81-6.26 106.66-6.26Z"/><path fill="#ff5757" opacity="1" d="M126.45 10.28C123.25 9.83 119.69 9.43 118.54 9.43L118.59 7.82L118.64 6.92C119.49 6.87 120.39 6.82 121.19 6.67L126.60 6.22L126.55 5.22C126.40 4.82 126.20 4.42 126.20 3.96C126.20 3.51 126.40 3.41 126.45 3.06L126.45 2.81C126.45 2.61 126.45 2.36 126.40 2.16C126.40 2.01 126.10 1.01 126.10 0.41C126.10 0.16 126.15 0.01 126.25 0.01C125.65 0.06 125.00 0.11 124.25 0.26L119.74 0.46L119.04 0.51L119.24-2.50C119.69-2.50 120.14-2.45 120.59-2.40C122.54-2.40 125.20-2.05 126.45-1.90L128.51-1.80C128.41-2.25 127.60-2.15 127.00-2.30C127.15-2.55 127.15-2.90 127.50-2.95L128.26-2.90C128.41-2.90 128.51-2.90 128.56-2.95C128.66-3.00 128.71-3.05 128.71-3.10C128.71-3.25 128.51-3.35 128.46-3.50C128.41-3.60 128.41-3.75 128.41-3.90C128.41-4.15 128.46-4.40 128.51-4.75C128.66-5.20 128.71-5.65 128.86-6.21C128.96-6.61 129.01-7.01 129.01-7.41L129.01-7.66C127.86-7.91 126.80-8.06 125.65-8.26C124.25-8.46 122.44-8.61 120.79-8.61L117.94-8.61C117.94-9.06 117.94-9.56 117.79-9.91C117.73-10.11 117.63-10.21 117.58-10.21C117.43-10.21 117.43-9.71 117.23-9.46C117.08-9.26 116.93-9.16 116.73-9.16L116.18-9.21L115.98-9.21C115.58-9.21 115.23-9.31 114.78-9.36L114.33-9.41C113.98-9.41 113.68-9.36 113.43-9.21C113.48-7.86 113.53-6.66 113.53-5.30L113.53-2.55C113.53-0.39 113.43-1.50 113.33 0.71L112.88 10.98C112.88 12.78 112.93 14.59 112.98 16.39C113.03 16.34 113.13 16.34 113.23 16.34L113.63 16.39C113.68 16.39 113.78 16.34 113.93 16.29C114.33 15.94 114.63 15.54 115.08 15.54L115.93 16.24C116.08 16.29 116.18 16.34 116.23 16.34C116.38 16.34 116.58 16.24 116.73 16.19C116.88 16.19 117.28 15.89 117.84 15.74L118.24 15.64L118.74 15.54L119.19 15.54C119.94 15.54 122.85 15.99 126.80 16.69C127.65 16.94 128.41 16.94 129.21 17.14C129.26 16.69 128.21 16.59 127.45 16.34C127.70 16.14 127.81 15.89 128.16 15.74C128.51 15.74 128.81 15.99 129.16 15.99C129.26 15.99 129.31 15.99 129.36 15.94C129.51 15.89 129.56 15.84 129.56 15.79C129.56 15.64 129.41 15.54 129.26 15.34L129.21 15.09C129.21 14.74 129.36 14.44 129.41 14.19C129.56 13.63 129.76 13.23 129.96 12.68C130.11 12.28 130.16 11.88 130.16 11.43L130.16 11.23C128.91 10.88 127.70 10.63 126.45 10.28ZM126.25 0.01C126.30 0.01 126.30 0.01 126.30 0.01Z"/></g><g transform="matrix(1.1726850411618475 0 0 1.1726850411618475 259.4401860512035 197.94737445994596)"  >
<g style=""   >
		<g transform="matrix(1.1204384654154556 0 0 1.1204384654154556 -10.091012139927798 11.67006888483489)"  >
<circle style="stroke: none; stroke-width: 0; stroke-dasharray: none; stroke-linecap: butt; stroke-dashoffset: 0; stroke-linejoin: miter; stroke-miterlimit: 4; fill: rgb(0,76,242); fill-rule: evenodd; opacity: 0.8;"  cx="0" cy="0" r="47.0059" />
</g>
		<g transform="matrix(0.7023644111559573 0 0 0.7023644111559573 20.99094185883972 -10.340111964735698)"  >
<circle style="stroke: none; stroke-width: 0; stroke-dasharray: none; stroke-linecap: butt; stroke-dashoffset: 0; stroke-linejoin: miter; stroke-miterlimit: 4; fill: rgb(251,165,54); fill-rule: evenodd; opacity: 0.8;"  cx="0" cy="0" r="47.0059" />
</g>
		<g transform="matrix(0.1640206609377625 0 0 0.1640206609377625 0.9140782848575064 -56.627348560332905)"  >
<circle style="stroke: none; stroke-width: 0; stroke-dasharray: none; stroke-linecap: butt; stroke-dashoffset: 0; stroke-linejoin: miter; stroke-miterlimit: 4; fill: rgb(255,83,98); fill-rule: evenodd; opacity: 0.7;"  cx="0" cy="0" r="47.0059" />
</g>
		<g transform="matrix(0.8863169950301366 0 0 0.8863169950301366 -25.328172179880866 -1.6932552024043588)"  >
<circle style="stroke: none; stroke-width: 0; stroke-dasharray: none; stroke-linecap: butt; stroke-dashoffset: 0; stroke-linejoin: miter; stroke-miterlimit: 4; fill: rgb(99,25,195); fill-rule: evenodd; opacity: 0.8;"  cx="0" cy="0" r="47.0059" />
</g>
		<g transform="matrix(0.6470430043256643 0 0 0.6470430043256643 13.674042016607682 31.322016071951435)"  >
<circle style="stroke: none; stroke-width: 0; stroke-dasharray: none; stroke-linecap: butt; stroke-dashoffset: 0; stroke-linejoin: miter; stroke-miterlimit: 4; fill: rgb(255,83,98); fill-rule: evenodd; opacity: 0.8;"  cx="0" cy="0" r="47.0059" />
</g>
		<g transform="matrix(0.07846229053274655 0 0 -0.07846229053274655 -76.90763257612397 11.670068884834874)"  >
<circle style="stroke: none; stroke-width: 0; stroke-dasharray: none; stroke-linecap: butt; stroke-dashoffset: 0; stroke-linejoin: miter; stroke-miterlimit: 4; fill: rgb(99,25,195); fill-rule: evenodd; opacity: 0.7;"  cx="0" cy="0" r="47.0059" />
</g>
		<g transform="matrix(0.08973911094761094 0 0 0.08973911094761093 55.15345252129921 21.98044018813328)"  >
<circle style="stroke: none; stroke-width: 0; stroke-dasharray: none; stroke-linecap: butt; stroke-dashoffset: 0; stroke-linejoin: miter; stroke-miterlimit: 4; fill: rgb(255,83,98); fill-rule: evenodd; opacity: 0.7;"  cx="0" cy="0" r="47.0059" />
</g>
		<g transform="matrix(0.19007688396989056 0 0 0.19007688396989056 71.66108815847704 6.423524467187805)"  >
<circle style="stroke: none; stroke-width: 0; stroke-dasharray: none; stroke-linecap: butt; stroke-dashoffset: 0; stroke-linejoin: miter; stroke-miterlimit: 4; fill: rgb(0,76,242); fill-rule: evenodd; opacity: 0.7;"  cx="0" cy="0" r="47.0059" />
</g>
		<g transform="matrix(0.09873329263926167 0 0 0.09873329263926167 -61.34997199317024 55.69043058397597)"  >
<circle style="stroke: none; stroke-width: 0; stroke-dasharray: none; stroke-linecap: butt; stroke-dashoffset: 0; stroke-linejoin: miter; stroke-miterlimit: 4; fill: rgb(251,165,54); fill-rule: evenodd; opacity: 0.7;"  cx="0" cy="0" r="47.0059" />
</g>
</g>
</g>
</svg>